<mxfile host="app.diagrams.net" modified="2023-10-02T09:34:42.246Z" agent="Mozilla/5.0 (Windows NT 10.0; Win64; x64) AppleWebKit/537.36 (KHTML, like Gecko) Chrome/117.0.0.0 Safari/537.36" etag="kueLWZMvaLsmO-tEK_fH" version="22.0.0" type="device">
  <diagram name="Page-1" id="IKi_xmrsHF8nE-bCacd2">
    <mxGraphModel dx="621" dy="740" grid="0" gridSize="10" guides="1" tooltips="1" connect="1" arrows="1" fold="1" page="0" pageScale="1" pageWidth="850" pageHeight="1100" math="0" shadow="0">
      <root>
        <mxCell id="0" />
        <mxCell id="1" parent="0" />
        <mxCell id="kvXbFfDH08Z9PetAoTgC-5" value="" style="edgeStyle=none;curved=1;rounded=0;orthogonalLoop=1;jettySize=auto;html=1;fontSize=12;startSize=8;endSize=8;" edge="1" parent="1" source="kvXbFfDH08Z9PetAoTgC-3" target="kvXbFfDH08Z9PetAoTgC-4">
          <mxGeometry relative="1" as="geometry" />
        </mxCell>
        <mxCell id="kvXbFfDH08Z9PetAoTgC-3" value="start" style="ellipse;whiteSpace=wrap;html=1;fontSize=16;" vertex="1" parent="1">
          <mxGeometry x="140" y="160" width="120" height="80" as="geometry" />
        </mxCell>
        <mxCell id="kvXbFfDH08Z9PetAoTgC-7" value="" style="edgeStyle=none;curved=1;rounded=0;orthogonalLoop=1;jettySize=auto;html=1;fontSize=12;startSize=8;endSize=8;" edge="1" parent="1" source="kvXbFfDH08Z9PetAoTgC-4">
          <mxGeometry relative="1" as="geometry">
            <mxPoint x="195" y="463" as="targetPoint" />
          </mxGeometry>
        </mxCell>
        <mxCell id="kvXbFfDH08Z9PetAoTgC-4" value="int bil1, bil2, bil3" style="shape=hexagon;perimeter=hexagonPerimeter2;whiteSpace=wrap;html=1;fixedSize=1;fontSize=16;" vertex="1" parent="1">
          <mxGeometry x="127" y="287" width="146" height="99" as="geometry" />
        </mxCell>
        <mxCell id="kvXbFfDH08Z9PetAoTgC-8" value="" style="rhombus;whiteSpace=wrap;html=1;fontSize=16;" vertex="1" parent="1">
          <mxGeometry x="140" y="564" width="123" height="126" as="geometry" />
        </mxCell>
        <mxCell id="kvXbFfDH08Z9PetAoTgC-12" value="" style="shape=parallelogram;perimeter=parallelogramPerimeter;whiteSpace=wrap;html=1;fixedSize=1;fontSize=16;" vertex="1" parent="1">
          <mxGeometry x="136" y="463" width="120" height="60" as="geometry" />
        </mxCell>
      </root>
    </mxGraphModel>
  </diagram>
</mxfile>
